<svg width="1280" height="636" viewBox="0 0 1280 636" fill="none" xmlns="http://www.w3.org/2000/svg">
<g filter="url(#filter0_f_306_332)">
<path d="M642.915 -280.8C646.553 -287.101 648.371 -290.251 650.746 -291.308C652.817 -292.231 655.183 -292.231 657.254 -291.308C659.629 -290.251 661.447 -287.101 665.085 -280.8L952.086 216.3C955.724 222.601 957.543 225.751 957.271 228.336C957.034 230.591 955.851 232.639 954.017 233.972C951.914 235.5 948.276 235.5 941.001 235.5H366.999C359.724 235.5 356.086 235.5 353.983 233.972C352.149 232.639 350.966 230.591 350.729 228.336C350.457 225.751 352.276 222.601 355.914 216.3L642.915 -280.8Z" fill="#E0EEC1"/>
</g>
<defs>
<filter id="filter0_f_306_332" x="-49.2969" y="-692" width="1406.59" height="1327.5" filterUnits="userSpaceOnUse" color-interpolation-filters="sRGB">
<feFlood flood-opacity="0" result="BackgroundImageFix"/>
<feBlend mode="normal" in="SourceGraphic" in2="BackgroundImageFix" result="shape"/>
<feGaussianBlur stdDeviation="200" result="effect1_foregroundBlur_306_332"/>
</filter>
</defs>
</svg>
