<svg width="836" height="773" viewBox="0 0 836 773" fill="none" xmlns="http://www.w3.org/2000/svg">
<g filter="url(#filter0_f_304_128)">
<path d="M692.915 -143.8C696.553 -150.101 698.371 -153.251 700.746 -154.308C702.817 -155.231 705.183 -155.231 707.254 -154.308C709.629 -153.251 711.447 -150.101 715.085 -143.8L1002.09 353.3C1005.72 359.601 1007.54 362.751 1007.27 365.336C1007.03 367.591 1005.85 369.639 1004.02 370.972C1001.91 372.5 998.276 372.5 991.001 372.5H416.999C409.724 372.5 406.086 372.5 403.983 370.972C402.149 369.639 400.966 367.591 400.729 365.336C400.457 362.751 402.276 359.601 405.914 353.3L692.915 -143.8Z" fill="#F55274"/>
</g>
<defs>
<filter id="filter0_f_304_128" x="0.703125" y="-555" width="1406.59" height="1327.5" filterUnits="userSpaceOnUse" color-interpolation-filters="sRGB">
<feFlood flood-opacity="0" result="BackgroundImageFix"/>
<feBlend mode="normal" in="SourceGraphic" in2="BackgroundImageFix" result="shape"/>
<feGaussianBlur stdDeviation="200" result="effect1_foregroundBlur_304_128"/>
</filter>
</defs>
</svg>
