<svg width="859" height="825" viewBox="0 0 859 825" fill="none" xmlns="http://www.w3.org/2000/svg">
<g filter="url(#filter0_f_304_127)">
<path d="M143.915 411.2C147.553 404.899 149.371 401.749 151.746 400.692C153.817 399.769 156.183 399.769 158.254 400.692C160.629 401.749 162.447 404.899 166.085 411.2L453.086 908.3C456.724 914.601 458.543 917.751 458.271 920.336C458.034 922.591 456.851 924.639 455.017 925.972C452.914 927.5 449.276 927.5 442.001 927.5H-132.001C-139.276 927.5 -142.914 927.5 -145.017 925.972C-146.851 924.639 -148.034 922.591 -148.271 920.336C-148.543 917.751 -146.724 914.601 -143.086 908.3L143.915 411.2Z" fill="#F55274"/>
</g>
<defs>
<filter id="filter0_f_304_127" x="-548.297" y="0" width="1406.59" height="1327.5" filterUnits="userSpaceOnUse" color-interpolation-filters="sRGB">
<feFlood flood-opacity="0" result="BackgroundImageFix"/>
<feBlend mode="normal" in="SourceGraphic" in2="BackgroundImageFix" result="shape"/>
<feGaussianBlur stdDeviation="200" result="effect1_foregroundBlur_304_127"/>
</filter>
</defs>
</svg>
