<svg width="1280" height="638" viewBox="0 0 1280 638" fill="none" xmlns="http://www.w3.org/2000/svg">
<g filter="url(#filter0_f_306_328)">
<path d="M628.915 -278.8C632.553 -285.101 634.371 -288.251 636.746 -289.308C638.817 -290.231 641.183 -290.231 643.254 -289.308C645.629 -288.251 647.447 -285.101 651.085 -278.8L938.086 218.3C941.724 224.601 943.543 227.751 943.271 230.336C943.034 232.591 941.851 234.639 940.017 235.972C937.914 237.5 934.276 237.5 927.001 237.5H352.999C345.724 237.5 342.086 237.5 339.983 235.972C338.149 234.639 336.966 232.591 336.729 230.336C336.457 227.751 338.276 224.601 341.914 218.3L628.915 -278.8Z" fill="#3521AB"/>
</g>
<defs>
<filter id="filter0_f_306_328" x="-63.2969" y="-690" width="1406.59" height="1327.5" filterUnits="userSpaceOnUse" color-interpolation-filters="sRGB">
<feFlood flood-opacity="0" result="BackgroundImageFix"/>
<feBlend mode="normal" in="SourceGraphic" in2="BackgroundImageFix" result="shape"/>
<feGaussianBlur stdDeviation="200" result="effect1_foregroundBlur_306_328"/>
</filter>
</defs>
</svg>
