<svg width="1147" height="832" viewBox="0 0 1147 832" fill="none" xmlns="http://www.w3.org/2000/svg">
<g filter="url(#filter0_f_304_129)">
<path d="M936.415 124.2C940.053 117.899 941.871 114.749 944.246 113.692C946.317 112.769 948.683 112.769 950.754 113.692C953.129 114.749 954.947 117.899 958.585 124.2L1388.91 869.55C1392.55 875.851 1394.37 879.001 1394.1 881.586C1393.86 883.841 1392.68 885.889 1390.84 887.222C1388.74 888.75 1385.1 888.75 1377.83 888.75H517.172C509.897 888.75 506.259 888.75 504.156 887.222C502.322 885.889 501.139 883.841 500.902 881.586C500.63 879.001 502.449 875.851 506.087 869.55L936.415 124.2Z" fill="#3521AB"/>
</g>
<defs>
<filter id="filter0_f_304_129" x="0.875" y="-387" width="1893.25" height="1775.75" filterUnits="userSpaceOnUse" color-interpolation-filters="sRGB">
<feFlood flood-opacity="0" result="BackgroundImageFix"/>
<feBlend mode="normal" in="SourceGraphic" in2="BackgroundImageFix" result="shape"/>
<feGaussianBlur stdDeviation="250" result="effect1_foregroundBlur_304_129"/>
</filter>
</defs>
</svg>
