<svg width="1167" height="832" viewBox="0 0 1167 832" fill="none" xmlns="http://www.w3.org/2000/svg">
<g filter="url(#filter0_f_304_126)">
<path d="M208.415 -327.8C212.053 -334.101 213.871 -337.251 216.246 -338.308C218.317 -339.231 220.683 -339.231 222.754 -338.308C225.129 -337.251 226.947 -334.101 230.585 -327.8L660.913 417.55C664.551 423.851 666.37 427.001 666.098 429.586C665.861 431.841 664.678 433.889 662.844 435.222C660.741 436.75 657.104 436.75 649.828 436.75H-210.828C-218.103 436.75 -221.741 436.75 -223.844 435.222C-225.678 433.889 -226.861 431.841 -227.098 429.586C-227.37 427.001 -225.551 423.851 -221.913 417.55L208.415 -327.8Z" fill="#3521AB"/>
</g>
<defs>
<filter id="filter0_f_304_126" x="-727.125" y="-839" width="1893.25" height="1775.75" filterUnits="userSpaceOnUse" color-interpolation-filters="sRGB">
<feFlood flood-opacity="0" result="BackgroundImageFix"/>
<feBlend mode="normal" in="SourceGraphic" in2="BackgroundImageFix" result="shape"/>
<feGaussianBlur stdDeviation="250" result="effect1_foregroundBlur_304_126"/>
</filter>
</defs>
</svg>
